<?xml version="1.0" standalone="no"?>
<svg viewBox="0 0 200 200" xmlns="http://www.w3.org/2000/svg">
  <path fill="#8B72B6" d="M28.7,-34.6C41.6,-30.1,59.6,-27.7,63.6,-19.7C67.5,-11.7,57.5,1.9,48,10.8C38.5,19.8,29.7,24.2,21.8,33.1C13.9,42.1,6.9,55.5,-5.6,63.1C-18.1,70.8,-36.1,72.7,-50.7,66C-65.4,59.2,-76.5,43.9,-73.4,29.5C-70.2,15.2,-52.8,1.8,-44.3,-11.4C-35.9,-24.6,-36.4,-37.8,-30.5,-44.5C-24.6,-51.2,-12.3,-51.6,-2.2,-48.5C7.9,-45.5,15.8,-39,28.7,-34.6Z" transform="translate(100 100)" />
</svg>
