<?xml version="1.0" standalone="no"?>
<svg viewBox="0 0 200 200" xmlns="http://www.w3.org/2000/svg">
  <path fill="#8B72B6" d="M35.8,-42.4C48,-40.5,60.5,-32.1,66.2,-20.2C71.9,-8.3,70.7,7.2,63.8,18.3C56.9,29.5,44.1,36.3,32.5,38.4C20.9,40.5,10.5,37.9,-2.5,41.2C-15.4,44.6,-30.7,54,-44.8,52.8C-59,51.5,-71.8,39.5,-69.3,27.2C-66.9,14.9,-49.1,2.4,-41.8,-11.6C-34.6,-25.6,-37.8,-41.1,-32.6,-45.3C-27.4,-49.5,-13.7,-42.5,-0.9,-41.2C11.8,-39.9,23.7,-44.4,35.8,-42.4Z" transform="translate(100 100)" />
</svg>
