<?xml version="1.0" encoding="UTF-8"?>
<svg id="Layer_1" data-name="Layer 1" xmlns="http://www.w3.org/2000/svg" viewBox="0 0 200 206.86">
  <defs>
    <style>
      .cls-1 {
        fill: none;
      }
    </style>
  </defs>
  <path class="cls-1" d="M34.99,44.07c1.11,7.31,7.47,12.9,15.06,12.9,8.42,0,15.25-6.83,15.25-15.25,0-3.27-2.92-9.09-6.86-15.19-1.68-2.61-3.56-5.31-5.47-7.88-.99-1.3-1.97-2.57-2.92-3.81-2.48,3.18-5.02,6.67-7.34,10.14-4.45,6.67-7.91,13.19-7.91,16.75,0,.79,.06,1.59,.19,2.35Z"/>
  <path class="cls-1" d="M100,16.4c-11.57,0-22.62,2.16-32.76,6.16,4.16,6.61,7.59,13.76,7.59,19.16,0,13.66-11.12,24.79-24.79,24.79-9.82,0-18.3-5.72-22.31-14.01-11.44,15.13-18.21,33.97-18.21,54.37,0,49.89,40.58,90.47,90.47,90.47s90.47-40.58,90.47-90.47S149.89,16.4,100,16.4ZM49.56,99.4c-2.14-1.52-2.66-4.47-1.15-6.62,.68-.97,6.87-9.4,15.86-9.4h.13c5.57,.05,10.52,3.24,14.74,9.47,1.47,2.18,.9,5.15-1.28,6.62-.82,.55-1.75,.82-2.66,.82-1.53,0-3.03-.74-3.95-2.1-1.61-2.39-4.12-5.24-6.91-5.28h-.06c-3.45,0-7.07,3.97-8.08,5.37-1.53,2.13-4.5,2.64-6.64,1.12Zm90.09,71.11c-2.63,0-4.77-2.13-4.77-4.77,0-24.64-21.86-28.32-34.89-28.32s-34.89,3.68-34.89,28.32c0,2.63-2.13,4.77-4.77,4.77s-4.77-2.13-4.77-4.77c0-23.7,16.61-37.85,44.43-37.85s44.43,14.15,44.43,37.85c0,2.63-2.13,4.77-4.77,4.77Zm3.88-71.04c-.82,.55-1.75,.82-2.66,.82-1.53,0-3.03-.74-3.95-2.1-1.61-2.39-4.12-5.24-6.91-5.28h-.06c-3.45,0-7.07,3.97-8.08,5.37-1.53,2.13-4.5,2.64-6.64,1.12-2.14-1.52-2.66-4.47-1.15-6.62,.68-.97,6.79-9.45,15.99-9.4,5.57,.05,10.52,3.24,14.74,9.47,1.47,2.18,.9,5.15-1.28,6.62Z"/>
  <path d="M100,6.86c-13.54,0-26.44,2.7-38.23,7.63-3.56-4.86-6.8-8.74-8.1-10.26l-3.62-4.23-3.62,4.23c-3.4,4-19.99,23.9-21.1,36.22C9.56,58.12,0,81.41,0,106.86c0,55.13,44.87,100,100,100s100-44.87,100-100S155.13,6.86,100,6.86Zm-49.95,7.98c.95,1.24,1.94,2.51,2.92,3.81,1.91,2.57,3.78,5.27,5.47,7.88,3.94,6.1,6.86,11.92,6.86,15.19,0,8.42-6.83,15.25-15.25,15.25-7.59,0-13.95-5.59-15.06-12.9-.13-.76-.19-1.56-.19-2.35,0-3.56,3.46-10.07,7.91-16.75,2.32-3.46,4.86-6.96,7.34-10.14Zm49.95,182.49c-49.89,0-90.47-40.58-90.47-90.47,0-20.4,6.77-39.24,18.21-54.37,4,8.29,12.49,14.01,22.31,14.01,13.66,0,24.79-11.12,24.79-24.79,0-5.4-3.43-12.55-7.59-19.16,10.14-4,21.19-6.16,32.76-6.16,49.89,0,90.47,40.58,90.47,90.47s-40.58,90.47-90.47,90.47Z"/>
  <path d="M56.2,98.28c1-1.4,4.63-5.37,8.08-5.37h.06c2.79,.04,5.29,2.89,6.91,5.28,.92,1.36,2.42,2.1,3.95,2.1,.92,0,1.85-.26,2.66-.82,2.18-1.47,2.75-4.44,1.28-6.62-4.21-6.24-9.17-9.42-14.74-9.47h-.13c-8.99,0-15.18,8.44-15.86,9.4-1.51,2.15-.99,5.1,1.15,6.62,2.14,1.52,5.11,1.01,6.64-1.12Z"/>
  <path d="M130.08,83.38c-9.2-.05-15.31,8.43-15.99,9.4-1.51,2.15-.99,5.1,1.15,6.62,2.14,1.52,5.11,1.01,6.64-1.12,1-1.4,4.63-5.37,8.08-5.37h.06c2.79,.04,5.29,2.89,6.91,5.28,.92,1.36,2.42,2.1,3.95,2.1,.92,0,1.85-.26,2.66-.82,2.18-1.47,2.75-4.44,1.28-6.62-4.21-6.24-9.17-9.42-14.74-9.47Z"/>
  <path d="M99.99,127.89c-27.82,0-44.43,14.15-44.43,37.85,0,2.63,2.13,4.77,4.77,4.77s4.77-2.13,4.77-4.77c0-24.64,21.86-28.32,34.89-28.32s34.89,3.68,34.89,28.32c0,2.63,2.13,4.77,4.77,4.77s4.77-2.13,4.77-4.77c0-23.7-16.61-37.85-44.43-37.85Z"/>
</svg>