<?xml version="1.0" encoding="UTF-8"?>
<svg id="Layer_1" data-name="Layer 1" xmlns="http://www.w3.org/2000/svg" viewBox="0 0 200 200">
  <defs>
    <style>
      .cls-1 {
        fill: none;
      }
    </style>
  </defs>
  <path class="cls-1" d="M100,9.53C50.12,9.53,9.53,50.12,9.53,100s40.58,90.47,90.47,90.47,90.47-40.58,90.47-90.47S149.88,9.53,100,9.53ZM47.72,86.19c-1.03-2.42,.1-5.22,2.52-6.25l16.8-7.15-17.17-9.08c-2.33-1.23-3.22-4.11-1.99-6.44,1.23-2.33,4.11-3.21,6.44-1.99l24.97,13.2c1.81,.95,2.92,2.89,2.83,4.93-.09,2.05-1.36,3.88-3.24,4.69l-24.93,10.6c-.61,.26-1.24,.38-1.86,.38-1.85,0-3.62-1.09-4.39-2.9Zm100.15,31.18c0,23.85-19.51,39.25-49.7,39.25s-49.24-15.41-49.24-39.25v-4.77h98.94v4.77Zm1.21-31.18c-.77,1.81-2.53,2.9-4.39,2.9-.62,0-1.26-.12-1.86-.38l-24.93-10.6c-1.88-.8-3.15-2.64-3.24-4.68s1.03-3.98,2.84-4.94l24.97-13.2c2.33-1.23,5.21-.34,6.44,1.99,1.23,2.33,.34,5.21-1.99,6.44l-17.17,9.08,16.8,7.15c2.42,1.03,3.55,3.83,2.52,6.25Z"/>
  <path class="cls-1" d="M98.18,147.09c17.94,0,37.01-6.66,39.81-24.95H58.8c3.3,23.06,30.63,24.95,39.38,24.95Z"/>
  <path d="M100,0C44.86,0,0,44.86,0,100s44.86,100,100,100,100-44.86,100-100S155.14,0,100,0Zm0,190.47c-49.88,0-90.47-40.58-90.47-90.47S50.12,9.53,100,9.53s90.47,40.58,90.47,90.47-40.58,90.47-90.47,90.47Z"/>
  <path d="M48.94,117.37c0,23.85,19.33,39.25,49.24,39.25s49.7-15.41,49.7-39.25v-4.77H48.94v4.77Zm89.05,4.77c-2.8,18.29-21.88,24.95-39.81,24.95-8.75,0-36.08-1.89-39.38-24.95h79.19Z"/>
  <path d="M53.97,88.71l24.93-10.6c1.88-.8,3.15-2.64,3.24-4.69,.09-2.04-1.03-3.98-2.83-4.93l-24.97-13.2c-2.33-1.23-5.21-.34-6.44,1.99-1.23,2.33-.34,5.21,1.99,6.44l17.17,9.08-16.8,7.15c-2.42,1.03-3.55,3.83-2.52,6.25,.77,1.81,2.53,2.9,4.39,2.9,.62,0,1.26-.12,1.86-.38Z"/>
  <path d="M146.57,79.93l-16.8-7.15,17.17-9.08c2.33-1.23,3.22-4.11,1.99-6.44-1.23-2.33-4.11-3.21-6.44-1.99l-24.97,13.2c-1.81,.96-2.92,2.9-2.84,4.94s1.36,3.88,3.24,4.68l24.93,10.6c.61,.26,1.24,.38,1.86,.38,1.85,0,3.62-1.09,4.39-2.9,1.03-2.42-.1-5.22-2.52-6.25Z"/>
</svg>