<?xml version="1.0" encoding="UTF-8"?>
<svg id="Layer_1" data-name="Layer 1" xmlns="http://www.w3.org/2000/svg" viewBox="0 0 200 200">
  <defs>
    <style>
      .cls-1 {
        fill: none;
      }
    </style>
  </defs>
  <path class="cls-1" d="M100,9.53C50.12,9.53,9.53,50.12,9.53,100s40.58,90.47,90.47,90.47,90.47-40.58,90.47-90.47S149.88,9.53,100,9.53Zm32.92,51.45c6.78,0,12.27,5.49,12.27,12.27s-5.49,12.27-12.27,12.27-12.27-5.49-12.27-12.27,5.49-12.27,12.27-12.27Zm-65.84,.11c6.78,0,12.27,5.49,12.27,12.27s-5.49,12.27-12.27,12.27-12.27-5.49-12.27-12.27,5.49-12.27,12.27-12.27Zm77.62,78.98H55.3c-2.63,0-4.77-2.13-4.77-4.77s2.13-4.77,4.77-4.77h89.41c2.63,0,4.77,2.13,4.77,4.77s-2.13,4.77-4.77,4.77Z"/>
  <path d="M100,0C44.86,0,0,44.86,0,100s44.86,100,100,100,100-44.86,100-100S155.14,0,100,0Zm0,190.47c-49.88,0-90.47-40.58-90.47-90.47S50.12,9.53,100,9.53s90.47,40.58,90.47,90.47-40.58,90.47-90.47,90.47Z"/>
  <circle cx="67.08" cy="73.37" r="12.27"/>
  <circle cx="132.92" cy="73.26" r="12.27"/>
  <path d="M144.7,130.55H55.3c-2.63,0-4.77,2.13-4.77,4.77s2.13,4.77,4.77,4.77h89.41c2.63,0,4.77-2.13,4.77-4.77s-2.13-4.77-4.77-4.77Z"/>
</svg>